<mxfile host="app.diagrams.net" modified="2023-10-30T13:48:17.972Z" agent="Mozilla/5.0 (iPad; CPU OS 16_5 like Mac OS X) AppleWebKit/605.1.15 (KHTML, like Gecko) Version/16.5 Mobile/15E148 Safari/604.1" etag="3BueV62KI4fY5N1nQYVw" version="22.0.8" type="github">
  <diagram name="Trang-1" id="mt7oFHiJeuO51yZDCgaq">
    <mxGraphModel dx="1391" dy="1171" grid="0" gridSize="10" guides="1" tooltips="1" connect="1" arrows="1" fold="1" page="0" pageScale="1" pageWidth="827" pageHeight="1169" math="0" shadow="0">
      <root>
        <mxCell id="0" />
        <mxCell id="1" parent="0" />
        <mxCell id="oiQ_zvyc4pcT-CEGpvRY-66" value="n" style="text;html=1;strokeColor=none;fillColor=none;align=center;verticalAlign=middle;whiteSpace=wrap;rounded=0;fontSize=12;fontFamily=Helvetica;fontColor=default;" vertex="1" parent="1">
          <mxGeometry x="145.5" y="-4" width="17" height="15" as="geometry" />
        </mxCell>
        <mxCell id="oiQ_zvyc4pcT-CEGpvRY-16" style="edgeStyle=none;shape=connector;rounded=0;orthogonalLoop=1;jettySize=auto;html=1;entryX=0.5;entryY=1;entryDx=0;entryDy=0;labelBackgroundColor=default;strokeColor=default;align=center;verticalAlign=middle;fontFamily=Helvetica;fontSize=12;fontColor=default;endArrow=none;endFill=0;startSize=8;endSize=8;" edge="1" parent="1" source="oiQ_zvyc4pcT-CEGpvRY-12" target="oiQ_zvyc4pcT-CEGpvRY-14">
          <mxGeometry relative="1" as="geometry" />
        </mxCell>
        <mxCell id="oiQ_zvyc4pcT-CEGpvRY-18" style="edgeStyle=none;shape=connector;rounded=0;orthogonalLoop=1;jettySize=auto;html=1;entryX=0.5;entryY=0;entryDx=0;entryDy=0;labelBackgroundColor=default;strokeColor=default;align=center;verticalAlign=middle;fontFamily=Helvetica;fontSize=12;fontColor=default;endArrow=none;endFill=0;startSize=8;endSize=8;" edge="1" parent="1" source="oiQ_zvyc4pcT-CEGpvRY-12" target="oiQ_zvyc4pcT-CEGpvRY-17">
          <mxGeometry relative="1" as="geometry" />
        </mxCell>
        <mxCell id="oiQ_zvyc4pcT-CEGpvRY-21" style="edgeStyle=none;shape=connector;rounded=0;orthogonalLoop=1;jettySize=auto;html=1;labelBackgroundColor=default;strokeColor=default;align=center;verticalAlign=middle;fontFamily=Helvetica;fontSize=12;fontColor=default;endArrow=none;endFill=0;startSize=8;endSize=8;entryX=1;entryY=1;entryDx=0;entryDy=0;" edge="1" parent="1" source="oiQ_zvyc4pcT-CEGpvRY-12" target="oiQ_zvyc4pcT-CEGpvRY-19">
          <mxGeometry relative="1" as="geometry">
            <mxPoint x="137" y="-16" as="targetPoint" />
          </mxGeometry>
        </mxCell>
        <mxCell id="oiQ_zvyc4pcT-CEGpvRY-12" value="Bàn" style="rounded=1;whiteSpace=wrap;html=1;fontFamily=Helvetica;fontSize=12;fontColor=default;" vertex="1" parent="1">
          <mxGeometry x="81" y="20" width="65" height="48" as="geometry" />
        </mxCell>
        <mxCell id="g8IIa9dRJNMnUPB34h86-68" style="edgeStyle=none;shape=connector;rounded=0;orthogonalLoop=1;jettySize=auto;html=1;entryX=0;entryY=0;entryDx=0;entryDy=0;labelBackgroundColor=default;strokeColor=default;align=center;verticalAlign=middle;fontFamily=Helvetica;fontSize=12;fontColor=default;endArrow=none;endFill=0;startSize=8;endSize=8;" edge="1" parent="1" source="oiQ_zvyc4pcT-CEGpvRY-29" target="g8IIa9dRJNMnUPB34h86-67">
          <mxGeometry relative="1" as="geometry" />
        </mxCell>
        <mxCell id="oiQ_zvyc4pcT-CEGpvRY-20" style="edgeStyle=none;shape=connector;rounded=0;orthogonalLoop=1;jettySize=auto;html=1;entryX=0;entryY=0;entryDx=0;entryDy=0;labelBackgroundColor=default;strokeColor=default;align=center;verticalAlign=middle;fontFamily=Helvetica;fontSize=12;fontColor=default;endArrow=none;endFill=0;startSize=8;endSize=8;" edge="1" parent="1" source="oiQ_zvyc4pcT-CEGpvRY-70" target="oiQ_zvyc4pcT-CEGpvRY-19">
          <mxGeometry relative="1" as="geometry">
            <Array as="points" />
          </mxGeometry>
        </mxCell>
        <mxCell id="oiQ_zvyc4pcT-CEGpvRY-28" style="edgeStyle=none;shape=connector;rounded=0;orthogonalLoop=1;jettySize=auto;html=1;entryX=0.5;entryY=1;entryDx=0;entryDy=0;labelBackgroundColor=default;strokeColor=default;align=center;verticalAlign=middle;fontFamily=Helvetica;fontSize=12;fontColor=default;endArrow=none;endFill=0;startSize=8;endSize=8;" edge="1" parent="1" source="g8IIa9dRJNMnUPB34h86-3" target="g8IIa9dRJNMnUPB34h86-24">
          <mxGeometry relative="1" as="geometry" />
        </mxCell>
        <mxCell id="g8IIa9dRJNMnUPB34h86-3" value="Loại phòng" style="rounded=1;whiteSpace=wrap;html=1;fontSize=16;" vertex="1" parent="1">
          <mxGeometry x="158" y="-138" width="120" height="60" as="geometry" />
        </mxCell>
        <mxCell id="g8IIa9dRJNMnUPB34h86-16" style="rounded=0;orthogonalLoop=1;jettySize=auto;html=1;fontSize=12;startSize=8;endSize=8;exitX=0.5;exitY=1;exitDx=0;exitDy=0;entryX=0.75;entryY=0;entryDx=0;entryDy=0;endArrow=none;endFill=0;" edge="1" parent="1" source="g8IIa9dRJNMnUPB34h86-14" target="g8IIa9dRJNMnUPB34h86-3">
          <mxGeometry relative="1" as="geometry">
            <mxPoint x="259.54443239581633" y="-231.00014627815722" as="sourcePoint" />
            <mxPoint x="231.00181818181818" y="-139.89" as="targetPoint" />
          </mxGeometry>
        </mxCell>
        <mxCell id="g8IIa9dRJNMnUPB34h86-14" value="Phụ phí" style="ellipse;whiteSpace=wrap;html=1;fontSize=16;" vertex="1" parent="1">
          <mxGeometry x="316" y="-272" width="88" height="34" as="geometry" />
        </mxCell>
        <mxCell id="g8IIa9dRJNMnUPB34h86-48" style="edgeStyle=none;shape=connector;rounded=0;orthogonalLoop=1;jettySize=auto;html=1;entryX=0.5;entryY=0;entryDx=0;entryDy=0;labelBackgroundColor=default;strokeColor=default;align=center;verticalAlign=middle;fontFamily=Helvetica;fontSize=12;fontColor=default;endArrow=none;endFill=0;startSize=8;endSize=8;" edge="1" parent="1" source="g8IIa9dRJNMnUPB34h86-18" target="g8IIa9dRJNMnUPB34h86-43">
          <mxGeometry relative="1" as="geometry" />
        </mxCell>
        <mxCell id="g8IIa9dRJNMnUPB34h86-49" style="edgeStyle=none;shape=connector;rounded=0;orthogonalLoop=1;jettySize=auto;html=1;labelBackgroundColor=default;strokeColor=default;align=center;verticalAlign=middle;fontFamily=Helvetica;fontSize=12;fontColor=default;endArrow=none;endFill=0;startSize=8;endSize=8;entryX=1;entryY=0;entryDx=0;entryDy=0;" edge="1" parent="1" source="g8IIa9dRJNMnUPB34h86-18" target="g8IIa9dRJNMnUPB34h86-42">
          <mxGeometry relative="1" as="geometry">
            <mxPoint x="168" y="287" as="targetPoint" />
          </mxGeometry>
        </mxCell>
        <mxCell id="g8IIa9dRJNMnUPB34h86-50" style="edgeStyle=none;shape=connector;rounded=0;orthogonalLoop=1;jettySize=auto;html=1;entryX=0.5;entryY=0;entryDx=0;entryDy=0;labelBackgroundColor=default;strokeColor=default;align=center;verticalAlign=middle;fontFamily=Helvetica;fontSize=12;fontColor=default;endArrow=none;endFill=0;startSize=8;endSize=8;" edge="1" parent="1" source="g8IIa9dRJNMnUPB34h86-18" target="g8IIa9dRJNMnUPB34h86-47">
          <mxGeometry relative="1" as="geometry" />
        </mxCell>
        <mxCell id="g8IIa9dRJNMnUPB34h86-62" style="edgeStyle=none;shape=connector;rounded=0;orthogonalLoop=1;jettySize=auto;html=1;entryX=0.5;entryY=0;entryDx=0;entryDy=0;labelBackgroundColor=default;strokeColor=default;align=center;verticalAlign=middle;fontFamily=Helvetica;fontSize=12;fontColor=default;endArrow=none;endFill=0;startSize=8;endSize=8;" edge="1" parent="1" source="g8IIa9dRJNMnUPB34h86-18" target="g8IIa9dRJNMnUPB34h86-61">
          <mxGeometry relative="1" as="geometry" />
        </mxCell>
        <mxCell id="g8IIa9dRJNMnUPB34h86-66" style="edgeStyle=none;shape=connector;rounded=0;orthogonalLoop=1;jettySize=auto;html=1;entryX=1;entryY=0;entryDx=0;entryDy=0;labelBackgroundColor=default;strokeColor=default;align=center;verticalAlign=middle;fontFamily=Helvetica;fontSize=12;fontColor=default;endArrow=none;endFill=0;startSize=8;endSize=8;" edge="1" parent="1" source="oiQ_zvyc4pcT-CEGpvRY-35" target="g8IIa9dRJNMnUPB34h86-63">
          <mxGeometry relative="1" as="geometry" />
        </mxCell>
        <mxCell id="oiQ_zvyc4pcT-CEGpvRY-11" style="edgeStyle=none;shape=connector;rounded=0;orthogonalLoop=1;jettySize=auto;html=1;entryX=1;entryY=0.5;entryDx=0;entryDy=0;labelBackgroundColor=default;strokeColor=default;align=center;verticalAlign=middle;fontFamily=Helvetica;fontSize=12;fontColor=default;endArrow=none;endFill=0;startSize=8;endSize=8;" edge="1" parent="1" source="oiQ_zvyc4pcT-CEGpvRY-56" target="oiQ_zvyc4pcT-CEGpvRY-9">
          <mxGeometry relative="1" as="geometry" />
        </mxCell>
        <mxCell id="oiQ_zvyc4pcT-CEGpvRY-25" style="edgeStyle=none;shape=connector;rounded=0;orthogonalLoop=1;jettySize=auto;html=1;entryX=1;entryY=1;entryDx=0;entryDy=0;labelBackgroundColor=default;strokeColor=default;align=center;verticalAlign=middle;fontFamily=Helvetica;fontSize=12;fontColor=default;endArrow=none;endFill=0;startSize=8;endSize=8;" edge="1" parent="1" source="oiQ_zvyc4pcT-CEGpvRY-46" target="oiQ_zvyc4pcT-CEGpvRY-23">
          <mxGeometry relative="1" as="geometry" />
        </mxCell>
        <mxCell id="g8IIa9dRJNMnUPB34h86-18" value="Khách hàng" style="rounded=1;whiteSpace=wrap;html=1;fontFamily=Helvetica;fontSize=12;fontColor=default;" vertex="1" parent="1">
          <mxGeometry x="196" y="232" width="120" height="60" as="geometry" />
        </mxCell>
        <mxCell id="g8IIa9dRJNMnUPB34h86-55" style="edgeStyle=none;shape=connector;rounded=0;orthogonalLoop=1;jettySize=auto;html=1;entryX=0;entryY=1;entryDx=0;entryDy=0;labelBackgroundColor=default;strokeColor=default;align=center;verticalAlign=middle;fontFamily=Helvetica;fontSize=12;fontColor=default;endArrow=none;endFill=0;startSize=8;endSize=8;" edge="1" parent="1" source="g8IIa9dRJNMnUPB34h86-19" target="g8IIa9dRJNMnUPB34h86-52">
          <mxGeometry relative="1" as="geometry" />
        </mxCell>
        <mxCell id="g8IIa9dRJNMnUPB34h86-56" style="edgeStyle=none;shape=connector;rounded=0;orthogonalLoop=1;jettySize=auto;html=1;entryX=0;entryY=0.5;entryDx=0;entryDy=0;labelBackgroundColor=default;strokeColor=default;align=center;verticalAlign=middle;fontFamily=Helvetica;fontSize=12;fontColor=default;endArrow=none;endFill=0;startSize=8;endSize=8;" edge="1" parent="1" source="g8IIa9dRJNMnUPB34h86-19" target="g8IIa9dRJNMnUPB34h86-51">
          <mxGeometry relative="1" as="geometry" />
        </mxCell>
        <mxCell id="g8IIa9dRJNMnUPB34h86-57" style="edgeStyle=none;shape=connector;rounded=0;orthogonalLoop=1;jettySize=auto;html=1;entryX=0;entryY=0.5;entryDx=0;entryDy=0;labelBackgroundColor=default;strokeColor=default;align=center;verticalAlign=middle;fontFamily=Helvetica;fontSize=12;fontColor=default;endArrow=none;endFill=0;startSize=8;endSize=8;" edge="1" parent="1" source="g8IIa9dRJNMnUPB34h86-19" target="g8IIa9dRJNMnUPB34h86-54">
          <mxGeometry relative="1" as="geometry" />
        </mxCell>
        <mxCell id="g8IIa9dRJNMnUPB34h86-58" style="edgeStyle=none;shape=connector;rounded=0;orthogonalLoop=1;jettySize=auto;html=1;entryX=0;entryY=0;entryDx=0;entryDy=0;labelBackgroundColor=default;strokeColor=default;align=center;verticalAlign=middle;fontFamily=Helvetica;fontSize=12;fontColor=default;endArrow=none;endFill=0;startSize=8;endSize=8;" edge="1" parent="1" source="g8IIa9dRJNMnUPB34h86-19" target="g8IIa9dRJNMnUPB34h86-53">
          <mxGeometry relative="1" as="geometry" />
        </mxCell>
        <mxCell id="g8IIa9dRJNMnUPB34h86-69" style="edgeStyle=none;shape=connector;rounded=0;orthogonalLoop=1;jettySize=auto;html=1;entryX=1;entryY=1;entryDx=0;entryDy=0;labelBackgroundColor=default;strokeColor=default;align=center;verticalAlign=middle;fontFamily=Helvetica;fontSize=12;fontColor=default;endArrow=none;endFill=0;startSize=8;endSize=8;" edge="1" parent="1" source="oiQ_zvyc4pcT-CEGpvRY-32" target="g8IIa9dRJNMnUPB34h86-67">
          <mxGeometry relative="1" as="geometry" />
        </mxCell>
        <mxCell id="g8IIa9dRJNMnUPB34h86-19" value="Phiếu đặt bàn" style="rounded=1;whiteSpace=wrap;html=1;fontFamily=Helvetica;fontSize=12;fontColor=default;" vertex="1" parent="1">
          <mxGeometry x="278" y="14" width="120" height="60" as="geometry" />
        </mxCell>
        <mxCell id="oiQ_zvyc4pcT-CEGpvRY-3" style="edgeStyle=none;shape=connector;rounded=0;orthogonalLoop=1;jettySize=auto;html=1;entryX=1;entryY=0;entryDx=0;entryDy=0;labelBackgroundColor=default;strokeColor=default;align=center;verticalAlign=middle;fontFamily=Helvetica;fontSize=12;fontColor=default;endArrow=none;endFill=0;startSize=8;endSize=8;" edge="1" parent="1" source="oiQ_zvyc4pcT-CEGpvRY-60" target="oiQ_zvyc4pcT-CEGpvRY-1">
          <mxGeometry relative="1" as="geometry" />
        </mxCell>
        <mxCell id="g8IIa9dRJNMnUPB34h86-20" value="Nhóm đồ ăn" style="rounded=1;whiteSpace=wrap;html=1;fontFamily=Helvetica;fontSize=12;fontColor=default;" vertex="1" parent="1">
          <mxGeometry x="-116" y="-138" width="120" height="60" as="geometry" />
        </mxCell>
        <mxCell id="g8IIa9dRJNMnUPB34h86-40" style="edgeStyle=none;shape=connector;rounded=0;orthogonalLoop=1;jettySize=auto;html=1;labelBackgroundColor=default;strokeColor=default;align=center;verticalAlign=middle;fontFamily=Helvetica;fontSize=12;fontColor=default;endArrow=none;endFill=0;startSize=8;endSize=8;entryX=1;entryY=0;entryDx=0;entryDy=0;" edge="1" parent="1" source="g8IIa9dRJNMnUPB34h86-21" target="g8IIa9dRJNMnUPB34h86-35">
          <mxGeometry relative="1" as="geometry">
            <mxPoint x="-287" y="21" as="targetPoint" />
          </mxGeometry>
        </mxCell>
        <mxCell id="g8IIa9dRJNMnUPB34h86-41" style="edgeStyle=none;shape=connector;rounded=0;orthogonalLoop=1;jettySize=auto;html=1;labelBackgroundColor=default;strokeColor=default;align=center;verticalAlign=middle;fontFamily=Helvetica;fontSize=12;fontColor=default;endArrow=none;endFill=0;startSize=8;endSize=8;" edge="1" parent="1" source="g8IIa9dRJNMnUPB34h86-21" target="g8IIa9dRJNMnUPB34h86-37">
          <mxGeometry relative="1" as="geometry" />
        </mxCell>
        <mxCell id="oiQ_zvyc4pcT-CEGpvRY-2" style="edgeStyle=none;shape=connector;rounded=0;orthogonalLoop=1;jettySize=auto;html=1;entryX=0;entryY=1;entryDx=0;entryDy=0;labelBackgroundColor=default;strokeColor=default;align=center;verticalAlign=middle;fontFamily=Helvetica;fontSize=12;fontColor=default;endArrow=none;endFill=0;startSize=8;endSize=8;" edge="1" parent="1" source="oiQ_zvyc4pcT-CEGpvRY-63" target="oiQ_zvyc4pcT-CEGpvRY-1">
          <mxGeometry relative="1" as="geometry" />
        </mxCell>
        <mxCell id="oiQ_zvyc4pcT-CEGpvRY-24" style="edgeStyle=none;shape=connector;rounded=0;orthogonalLoop=1;jettySize=auto;html=1;entryX=0;entryY=0;entryDx=0;entryDy=0;labelBackgroundColor=default;strokeColor=default;align=center;verticalAlign=middle;fontFamily=Helvetica;fontSize=12;fontColor=default;endArrow=none;endFill=0;startSize=8;endSize=8;" edge="1" parent="1" source="oiQ_zvyc4pcT-CEGpvRY-48" target="oiQ_zvyc4pcT-CEGpvRY-23">
          <mxGeometry relative="1" as="geometry" />
        </mxCell>
        <mxCell id="g8IIa9dRJNMnUPB34h86-21" value="Món ăn" style="rounded=1;whiteSpace=wrap;html=1;fontFamily=Helvetica;fontSize=12;fontColor=default;" vertex="1" parent="1">
          <mxGeometry x="-236" y="14" width="120" height="60" as="geometry" />
        </mxCell>
        <mxCell id="g8IIa9dRJNMnUPB34h86-60" style="edgeStyle=none;shape=connector;rounded=0;orthogonalLoop=1;jettySize=auto;html=1;entryX=0.5;entryY=0;entryDx=0;entryDy=0;labelBackgroundColor=default;strokeColor=default;align=center;verticalAlign=middle;fontFamily=Helvetica;fontSize=12;fontColor=default;endArrow=none;endFill=0;startSize=8;endSize=8;" edge="1" parent="1" source="g8IIa9dRJNMnUPB34h86-22" target="g8IIa9dRJNMnUPB34h86-59">
          <mxGeometry relative="1" as="geometry" />
        </mxCell>
        <mxCell id="oiQ_zvyc4pcT-CEGpvRY-10" style="edgeStyle=none;shape=connector;rounded=0;orthogonalLoop=1;jettySize=auto;html=1;labelBackgroundColor=default;strokeColor=default;align=center;verticalAlign=middle;fontFamily=Helvetica;fontSize=12;fontColor=default;endArrow=none;endFill=0;startSize=8;endSize=8;" edge="1" parent="1" source="oiQ_zvyc4pcT-CEGpvRY-58">
          <mxGeometry relative="1" as="geometry">
            <mxPoint x="62" y="259" as="targetPoint" />
          </mxGeometry>
        </mxCell>
        <mxCell id="g8IIa9dRJNMnUPB34h86-22" value="Thực đơn" style="rounded=1;whiteSpace=wrap;html=1;fontFamily=Helvetica;fontSize=12;fontColor=default;" vertex="1" parent="1">
          <mxGeometry x="-139" y="228.5" width="120" height="60" as="geometry" />
        </mxCell>
        <mxCell id="g8IIa9dRJNMnUPB34h86-26" style="edgeStyle=none;shape=connector;rounded=0;orthogonalLoop=1;jettySize=auto;html=1;entryX=0.5;entryY=0;entryDx=0;entryDy=0;labelBackgroundColor=default;strokeColor=default;align=center;verticalAlign=middle;fontFamily=Helvetica;fontSize=12;fontColor=default;endArrow=none;endFill=0;startSize=8;endSize=8;" edge="1" parent="1" source="g8IIa9dRJNMnUPB34h86-23" target="g8IIa9dRJNMnUPB34h86-3">
          <mxGeometry relative="1" as="geometry" />
        </mxCell>
        <mxCell id="g8IIa9dRJNMnUPB34h86-23" value="Tên" style="ellipse;whiteSpace=wrap;html=1;fontFamily=Helvetica;fontSize=12;fontColor=default;" vertex="1" parent="1">
          <mxGeometry x="138" y="-273" width="67.5" height="23" as="geometry" />
        </mxCell>
        <mxCell id="g8IIa9dRJNMnUPB34h86-24" value="&lt;u&gt;Mã loại phòng&lt;/u&gt;" style="ellipse;whiteSpace=wrap;html=1;fontFamily=Helvetica;fontSize=12;fontColor=default;" vertex="1" parent="1">
          <mxGeometry x="205.5" y="-308" width="101" height="28" as="geometry" />
        </mxCell>
        <mxCell id="g8IIa9dRJNMnUPB34h86-30" style="edgeStyle=none;shape=connector;rounded=0;orthogonalLoop=1;jettySize=auto;html=1;labelBackgroundColor=default;strokeColor=default;align=center;verticalAlign=middle;fontFamily=Helvetica;fontSize=12;fontColor=default;endArrow=none;endFill=0;startSize=8;endSize=8;" edge="1" parent="1" source="g8IIa9dRJNMnUPB34h86-28" target="g8IIa9dRJNMnUPB34h86-20">
          <mxGeometry relative="1" as="geometry" />
        </mxCell>
        <mxCell id="g8IIa9dRJNMnUPB34h86-28" value="Tên nhóm" style="ellipse;whiteSpace=wrap;html=1;fontFamily=Helvetica;fontSize=12;fontColor=default;" vertex="1" parent="1">
          <mxGeometry x="4" y="-281.5" width="77" height="40" as="geometry" />
        </mxCell>
        <mxCell id="g8IIa9dRJNMnUPB34h86-34" style="edgeStyle=none;shape=connector;rounded=0;orthogonalLoop=1;jettySize=auto;html=1;labelBackgroundColor=default;strokeColor=default;align=center;verticalAlign=middle;fontFamily=Helvetica;fontSize=12;fontColor=default;endArrow=none;endFill=0;startSize=8;endSize=8;" edge="1" parent="1" source="g8IIa9dRJNMnUPB34h86-32" target="g8IIa9dRJNMnUPB34h86-20">
          <mxGeometry relative="1" as="geometry" />
        </mxCell>
        <mxCell id="g8IIa9dRJNMnUPB34h86-32" value="&lt;u&gt;Mã nhóm&lt;/u&gt;" style="ellipse;whiteSpace=wrap;html=1;fontFamily=Helvetica;fontSize=12;fontColor=default;" vertex="1" parent="1">
          <mxGeometry x="-64" y="-314" width="84" height="40" as="geometry" />
        </mxCell>
        <mxCell id="g8IIa9dRJNMnUPB34h86-35" value="&lt;u&gt;Tên món ăn&lt;/u&gt;" style="ellipse;whiteSpace=wrap;html=1;fontFamily=Helvetica;fontSize=12;fontColor=default;" vertex="1" parent="1">
          <mxGeometry x="-345" y="-21" width="76" height="38" as="geometry" />
        </mxCell>
        <mxCell id="g8IIa9dRJNMnUPB34h86-37" value="Lượng phục vụ" style="ellipse;whiteSpace=wrap;html=1;fontFamily=Helvetica;fontSize=12;fontColor=default;" vertex="1" parent="1">
          <mxGeometry x="-345" y="54" width="64" height="47" as="geometry" />
        </mxCell>
        <mxCell id="g8IIa9dRJNMnUPB34h86-42" value="Sdt" style="ellipse;whiteSpace=wrap;html=1;fontFamily=Helvetica;fontSize=12;fontColor=default;" vertex="1" parent="1">
          <mxGeometry x="188" y="357.5" width="48" height="22" as="geometry" />
        </mxCell>
        <mxCell id="g8IIa9dRJNMnUPB34h86-43" value="Tên" style="ellipse;whiteSpace=wrap;html=1;fontFamily=Helvetica;fontSize=12;fontColor=default;direction=west;" vertex="1" parent="1">
          <mxGeometry x="258" y="354" width="33" height="35" as="geometry" />
        </mxCell>
        <mxCell id="g8IIa9dRJNMnUPB34h86-47" value="Mã thẻ ưu đãi" style="ellipse;whiteSpace=wrap;html=1;fontFamily=Helvetica;fontSize=12;fontColor=default;" vertex="1" parent="1">
          <mxGeometry x="311" y="339.5" width="54" height="47" as="geometry" />
        </mxCell>
        <mxCell id="g8IIa9dRJNMnUPB34h86-51" value="Ngày đến" style="ellipse;whiteSpace=wrap;html=1;fontFamily=Helvetica;fontSize=12;fontColor=default;" vertex="1" parent="1">
          <mxGeometry x="500" y="4" width="65" height="40" as="geometry" />
        </mxCell>
        <mxCell id="g8IIa9dRJNMnUPB34h86-52" value="Số lượng ng" style="ellipse;whiteSpace=wrap;html=1;fontFamily=Helvetica;fontSize=12;fontColor=default;" vertex="1" parent="1">
          <mxGeometry x="460" y="-42" width="88" height="41" as="geometry" />
        </mxCell>
        <mxCell id="g8IIa9dRJNMnUPB34h86-53" value="&lt;u&gt;Mã phiếu&lt;/u&gt;" style="ellipse;whiteSpace=wrap;html=1;fontFamily=Helvetica;fontSize=12;fontColor=default;" vertex="1" parent="1">
          <mxGeometry x="452" y="105" width="81" height="36" as="geometry" />
        </mxCell>
        <mxCell id="g8IIa9dRJNMnUPB34h86-54" value="Loại bữa ăn" style="ellipse;whiteSpace=wrap;html=1;fontFamily=Helvetica;fontSize=12;fontColor=default;" vertex="1" parent="1">
          <mxGeometry x="475" y="46" width="90" height="50" as="geometry" />
        </mxCell>
        <mxCell id="g8IIa9dRJNMnUPB34h86-59" value="&lt;u&gt;Mã thực đơn&lt;/u&gt;" style="ellipse;whiteSpace=wrap;html=1;fontFamily=Helvetica;fontSize=12;fontColor=default;" vertex="1" parent="1">
          <mxGeometry x="-177" y="335.5" width="92" height="44" as="geometry" />
        </mxCell>
        <mxCell id="g8IIa9dRJNMnUPB34h86-61" value="&lt;u&gt;Mã khách hàng&lt;/u&gt;" style="ellipse;whiteSpace=wrap;html=1;fontFamily=Helvetica;fontSize=12;fontColor=default;" vertex="1" parent="1">
          <mxGeometry x="106" y="339.5" width="67" height="40" as="geometry" />
        </mxCell>
        <mxCell id="oiQ_zvyc4pcT-CEGpvRY-45" style="shape=connector;rounded=0;orthogonalLoop=1;jettySize=auto;html=1;entryX=0.25;entryY=1;entryDx=0;entryDy=0;labelBackgroundColor=default;strokeColor=default;align=center;verticalAlign=middle;fontFamily=Helvetica;fontSize=12;fontColor=default;endArrow=none;endFill=0;" edge="1" parent="1" source="g8IIa9dRJNMnUPB34h86-63" target="oiQ_zvyc4pcT-CEGpvRY-43">
          <mxGeometry relative="1" as="geometry" />
        </mxCell>
        <mxCell id="g8IIa9dRJNMnUPB34h86-63" value="Có" style="rhombus;whiteSpace=wrap;html=1;fontFamily=Helvetica;fontSize=12;fontColor=default;" vertex="1" parent="1">
          <mxGeometry x="316" y="141" width="35" height="31" as="geometry" />
        </mxCell>
        <mxCell id="g8IIa9dRJNMnUPB34h86-67" value="Có" style="rhombus;whiteSpace=wrap;html=1;fontFamily=Helvetica;fontSize=12;fontColor=default;" vertex="1" parent="1">
          <mxGeometry x="242" y="-39" width="36" height="28" as="geometry" />
        </mxCell>
        <mxCell id="oiQ_zvyc4pcT-CEGpvRY-1" value="Có" style="rhombus;whiteSpace=wrap;html=1;fontFamily=Helvetica;fontSize=12;fontColor=default;" vertex="1" parent="1">
          <mxGeometry x="-92" y="-42" width="44" height="34" as="geometry" />
        </mxCell>
        <mxCell id="oiQ_zvyc4pcT-CEGpvRY-6" style="edgeStyle=none;shape=connector;rounded=0;orthogonalLoop=1;jettySize=auto;html=1;entryX=0.25;entryY=0;entryDx=0;entryDy=0;labelBackgroundColor=default;strokeColor=default;align=center;verticalAlign=middle;fontFamily=Helvetica;fontSize=12;fontColor=default;endArrow=none;endFill=0;startSize=8;endSize=8;" edge="1" parent="1" source="oiQ_zvyc4pcT-CEGpvRY-50" target="g8IIa9dRJNMnUPB34h86-22">
          <mxGeometry relative="1" as="geometry" />
        </mxCell>
        <mxCell id="oiQ_zvyc4pcT-CEGpvRY-7" style="edgeStyle=none;shape=connector;rounded=0;orthogonalLoop=1;jettySize=auto;html=1;entryX=0.5;entryY=1;entryDx=0;entryDy=0;labelBackgroundColor=default;strokeColor=default;align=center;verticalAlign=middle;fontFamily=Helvetica;fontSize=12;fontColor=default;endArrow=none;endFill=0;startSize=8;endSize=8;" edge="1" parent="1" source="oiQ_zvyc4pcT-CEGpvRY-53" target="g8IIa9dRJNMnUPB34h86-21">
          <mxGeometry relative="1" as="geometry" />
        </mxCell>
        <mxCell id="oiQ_zvyc4pcT-CEGpvRY-5" value="Có" style="rhombus;whiteSpace=wrap;html=1;fontFamily=Helvetica;fontSize=12;fontColor=default;" vertex="1" parent="1">
          <mxGeometry x="-177" y="136.5" width="50" height="40" as="geometry" />
        </mxCell>
        <mxCell id="oiQ_zvyc4pcT-CEGpvRY-9" value="Có" style="rhombus;whiteSpace=wrap;html=1;fontFamily=Helvetica;fontSize=12;fontColor=default;" vertex="1" parent="1">
          <mxGeometry x="65" y="242" width="47" height="33" as="geometry" />
        </mxCell>
        <mxCell id="oiQ_zvyc4pcT-CEGpvRY-15" style="edgeStyle=none;shape=connector;rounded=0;orthogonalLoop=1;jettySize=auto;html=1;entryX=1;entryY=0;entryDx=0;entryDy=0;labelBackgroundColor=default;strokeColor=default;align=center;verticalAlign=middle;fontFamily=Helvetica;fontSize=12;fontColor=default;endArrow=none;endFill=0;startSize=8;endSize=8;" edge="1" parent="1" source="oiQ_zvyc4pcT-CEGpvRY-12" target="oiQ_zvyc4pcT-CEGpvRY-13">
          <mxGeometry relative="1" as="geometry" />
        </mxCell>
        <mxCell id="oiQ_zvyc4pcT-CEGpvRY-13" value="Mã bàn" style="ellipse;whiteSpace=wrap;html=1;fontFamily=Helvetica;fontSize=12;fontColor=default;" vertex="1" parent="1">
          <mxGeometry x="-21" y="-11" width="55" height="36" as="geometry" />
        </mxCell>
        <mxCell id="oiQ_zvyc4pcT-CEGpvRY-14" value="Số lượng chỗ" style="ellipse;whiteSpace=wrap;html=1;fontFamily=Helvetica;fontSize=12;fontColor=default;movable=1;resizable=1;rotatable=1;deletable=1;editable=1;locked=0;connectable=1;" vertex="1" parent="1">
          <mxGeometry x="13" y="-80" width="68" height="45" as="geometry" />
        </mxCell>
        <mxCell id="oiQ_zvyc4pcT-CEGpvRY-17" value="Trạng thái" style="ellipse;whiteSpace=wrap;html=1;fontFamily=Helvetica;fontSize=12;fontColor=default;" vertex="1" parent="1">
          <mxGeometry x="-21" y="39" width="55" height="44.5" as="geometry" />
        </mxCell>
        <mxCell id="oiQ_zvyc4pcT-CEGpvRY-19" value="Có" style="rhombus;whiteSpace=wrap;html=1;fontFamily=Helvetica;fontSize=12;fontColor=default;direction=south;" vertex="1" parent="1">
          <mxGeometry x="156" y="-51" width="44" height="43" as="geometry" />
        </mxCell>
        <mxCell id="oiQ_zvyc4pcT-CEGpvRY-23" value="Đặt" style="rhombus;whiteSpace=wrap;html=1;fontFamily=Helvetica;fontSize=12;fontColor=default;" vertex="1" parent="1">
          <mxGeometry x="-9" y="141" width="60" height="58" as="geometry" />
        </mxCell>
        <mxCell id="oiQ_zvyc4pcT-CEGpvRY-30" value="" style="edgeStyle=none;shape=connector;rounded=0;orthogonalLoop=1;jettySize=auto;html=1;entryX=0;entryY=0;entryDx=0;entryDy=0;labelBackgroundColor=default;strokeColor=default;align=center;verticalAlign=middle;fontFamily=Helvetica;fontSize=12;fontColor=default;endArrow=none;endFill=0;startSize=8;endSize=8;" edge="1" parent="1" source="g8IIa9dRJNMnUPB34h86-3" target="oiQ_zvyc4pcT-CEGpvRY-29">
          <mxGeometry relative="1" as="geometry">
            <mxPoint x="240" y="-78" as="sourcePoint" />
            <mxPoint x="269" y="-39" as="targetPoint" />
          </mxGeometry>
        </mxCell>
        <mxCell id="oiQ_zvyc4pcT-CEGpvRY-29" value="1&lt;br&gt;" style="text;html=1;strokeColor=none;fillColor=none;align=center;verticalAlign=middle;whiteSpace=wrap;rounded=0;" vertex="1" parent="1">
          <mxGeometry x="236" y="-52" width="13" height="10" as="geometry" />
        </mxCell>
        <mxCell id="oiQ_zvyc4pcT-CEGpvRY-33" value="" style="edgeStyle=none;shape=connector;rounded=0;orthogonalLoop=1;jettySize=auto;html=1;entryX=1;entryY=1;entryDx=0;entryDy=0;labelBackgroundColor=default;strokeColor=default;align=center;verticalAlign=middle;fontFamily=Helvetica;fontSize=12;fontColor=default;endArrow=none;endFill=0;startSize=8;endSize=8;" edge="1" parent="1" source="g8IIa9dRJNMnUPB34h86-19" target="oiQ_zvyc4pcT-CEGpvRY-32">
          <mxGeometry relative="1" as="geometry">
            <mxPoint x="316" y="14" as="sourcePoint" />
            <mxPoint x="287" y="-25" as="targetPoint" />
          </mxGeometry>
        </mxCell>
        <mxCell id="oiQ_zvyc4pcT-CEGpvRY-32" value="n" style="text;html=1;strokeColor=none;fillColor=none;align=center;verticalAlign=middle;whiteSpace=wrap;rounded=0;fontSize=12;fontFamily=Helvetica;fontColor=default;rotation=0;" vertex="1" parent="1">
          <mxGeometry x="285" y="-18" width="24" height="17" as="geometry" />
        </mxCell>
        <mxCell id="oiQ_zvyc4pcT-CEGpvRY-36" value="" style="edgeStyle=none;shape=connector;rounded=0;orthogonalLoop=1;jettySize=auto;html=1;labelBackgroundColor=default;strokeColor=default;align=center;verticalAlign=middle;fontFamily=Helvetica;fontSize=12;fontColor=default;endArrow=none;endFill=0;startSize=8;endSize=8;" edge="1" parent="1" source="g8IIa9dRJNMnUPB34h86-18">
          <mxGeometry relative="1" as="geometry">
            <mxPoint x="279" y="232" as="sourcePoint" />
            <mxPoint x="305" y="204" as="targetPoint" />
          </mxGeometry>
        </mxCell>
        <mxCell id="oiQ_zvyc4pcT-CEGpvRY-35" value="1" style="text;html=1;strokeColor=none;fillColor=none;align=center;verticalAlign=middle;whiteSpace=wrap;rounded=0;fontSize=12;fontFamily=Helvetica;fontColor=default;" vertex="1" parent="1">
          <mxGeometry x="295" y="192" width="29" height="10" as="geometry" />
        </mxCell>
        <mxCell id="oiQ_zvyc4pcT-CEGpvRY-44" value="" style="rounded=0;orthogonalLoop=1;jettySize=auto;html=1;fontFamily=Helvetica;fontSize=12;fontColor=default;endArrow=none;endFill=0;" edge="1" parent="1" source="g8IIa9dRJNMnUPB34h86-19" target="oiQ_zvyc4pcT-CEGpvRY-43">
          <mxGeometry relative="1" as="geometry">
            <mxPoint x="335" y="74" as="sourcePoint" />
            <mxPoint x="332" y="104" as="targetPoint" />
            <Array as="points" />
          </mxGeometry>
        </mxCell>
        <mxCell id="oiQ_zvyc4pcT-CEGpvRY-43" value="n" style="text;html=1;strokeColor=none;fillColor=none;align=center;verticalAlign=middle;whiteSpace=wrap;rounded=0;fontSize=12;fontFamily=Helvetica;fontColor=default;" vertex="1" parent="1">
          <mxGeometry x="340" y="99" width="29" height="24" as="geometry" />
        </mxCell>
        <mxCell id="oiQ_zvyc4pcT-CEGpvRY-47" value="" style="edgeStyle=none;shape=connector;rounded=0;orthogonalLoop=1;jettySize=auto;html=1;entryX=1;entryY=1;entryDx=0;entryDy=0;labelBackgroundColor=default;strokeColor=default;align=center;verticalAlign=middle;fontFamily=Helvetica;fontSize=12;fontColor=default;endArrow=none;endFill=0;startSize=8;endSize=8;" edge="1" parent="1" source="g8IIa9dRJNMnUPB34h86-18" target="oiQ_zvyc4pcT-CEGpvRY-46">
          <mxGeometry relative="1" as="geometry">
            <mxPoint x="196" y="241" as="sourcePoint" />
            <mxPoint x="36" y="185" as="targetPoint" />
          </mxGeometry>
        </mxCell>
        <mxCell id="oiQ_zvyc4pcT-CEGpvRY-46" value="m" style="text;html=1;strokeColor=none;fillColor=none;align=center;verticalAlign=middle;whiteSpace=wrap;rounded=0;fontSize=12;fontFamily=Helvetica;fontColor=default;" vertex="1" parent="1">
          <mxGeometry x="75" y="178" width="38" height="24" as="geometry" />
        </mxCell>
        <mxCell id="oiQ_zvyc4pcT-CEGpvRY-49" value="" style="edgeStyle=none;shape=connector;rounded=0;orthogonalLoop=1;jettySize=auto;html=1;entryX=0;entryY=0;entryDx=0;entryDy=0;labelBackgroundColor=default;strokeColor=default;align=center;verticalAlign=middle;fontFamily=Helvetica;fontSize=12;fontColor=default;endArrow=none;endFill=0;startSize=8;endSize=8;" edge="1" parent="1" source="g8IIa9dRJNMnUPB34h86-21" target="oiQ_zvyc4pcT-CEGpvRY-48">
          <mxGeometry relative="1" as="geometry">
            <mxPoint x="-127" y="74" as="sourcePoint" />
            <mxPoint x="6" y="156" as="targetPoint" />
          </mxGeometry>
        </mxCell>
        <mxCell id="oiQ_zvyc4pcT-CEGpvRY-48" value="n" style="text;html=1;strokeColor=none;fillColor=none;align=center;verticalAlign=middle;whiteSpace=wrap;rounded=0;fontSize=12;fontFamily=Helvetica;fontColor=default;" vertex="1" parent="1">
          <mxGeometry x="-73" y="101" width="20" height="20" as="geometry" />
        </mxCell>
        <mxCell id="oiQ_zvyc4pcT-CEGpvRY-51" value="" style="edgeStyle=none;shape=connector;rounded=0;orthogonalLoop=1;jettySize=auto;html=1;entryX=0.25;entryY=0;entryDx=0;entryDy=0;labelBackgroundColor=default;strokeColor=default;align=center;verticalAlign=middle;fontFamily=Helvetica;fontSize=12;fontColor=default;endArrow=none;endFill=0;startSize=8;endSize=8;" edge="1" parent="1" source="oiQ_zvyc4pcT-CEGpvRY-5" target="oiQ_zvyc4pcT-CEGpvRY-50">
          <mxGeometry relative="1" as="geometry">
            <mxPoint x="-144" y="170" as="sourcePoint" />
            <mxPoint x="-109" y="229" as="targetPoint" />
          </mxGeometry>
        </mxCell>
        <mxCell id="oiQ_zvyc4pcT-CEGpvRY-50" value="1" style="text;html=1;strokeColor=none;fillColor=none;align=center;verticalAlign=middle;whiteSpace=wrap;rounded=0;fontSize=12;fontFamily=Helvetica;fontColor=default;" vertex="1" parent="1">
          <mxGeometry x="-137" y="188.5" width="21" height="17" as="geometry" />
        </mxCell>
        <mxCell id="oiQ_zvyc4pcT-CEGpvRY-52" value="Text" style="text;html=1;strokeColor=none;fillColor=none;align=center;verticalAlign=middle;whiteSpace=wrap;rounded=0;fontSize=12;fontFamily=Helvetica;fontColor=default;" vertex="1" parent="1">
          <mxGeometry x="-150" y="146" width="60" height="30" as="geometry" />
        </mxCell>
        <mxCell id="oiQ_zvyc4pcT-CEGpvRY-54" value="" style="edgeStyle=none;shape=connector;rounded=0;orthogonalLoop=1;jettySize=auto;html=1;entryX=0.5;entryY=1;entryDx=0;entryDy=0;labelBackgroundColor=default;strokeColor=default;align=center;verticalAlign=middle;fontFamily=Helvetica;fontSize=12;fontColor=default;endArrow=none;endFill=0;startSize=8;endSize=8;" edge="1" parent="1" source="oiQ_zvyc4pcT-CEGpvRY-5" target="oiQ_zvyc4pcT-CEGpvRY-53">
          <mxGeometry relative="1" as="geometry">
            <mxPoint x="-157" y="140" as="sourcePoint" />
            <mxPoint x="-176" y="74" as="targetPoint" />
          </mxGeometry>
        </mxCell>
        <mxCell id="oiQ_zvyc4pcT-CEGpvRY-53" value="n" style="text;html=1;strokeColor=none;fillColor=none;align=center;verticalAlign=middle;whiteSpace=wrap;rounded=0;fontSize=12;fontFamily=Helvetica;fontColor=default;" vertex="1" parent="1">
          <mxGeometry x="-175" y="96" width="17" height="17" as="geometry" />
        </mxCell>
        <mxCell id="oiQ_zvyc4pcT-CEGpvRY-57" value="" style="edgeStyle=none;shape=connector;rounded=0;orthogonalLoop=1;jettySize=auto;html=1;entryX=1;entryY=0.5;entryDx=0;entryDy=0;labelBackgroundColor=default;strokeColor=default;align=center;verticalAlign=middle;fontFamily=Helvetica;fontSize=12;fontColor=default;endArrow=none;endFill=0;startSize=8;endSize=8;" edge="1" parent="1" source="g8IIa9dRJNMnUPB34h86-18" target="oiQ_zvyc4pcT-CEGpvRY-56">
          <mxGeometry relative="1" as="geometry">
            <mxPoint x="196" y="261" as="sourcePoint" />
            <mxPoint x="112" y="259" as="targetPoint" />
          </mxGeometry>
        </mxCell>
        <mxCell id="oiQ_zvyc4pcT-CEGpvRY-56" value="1" style="text;html=1;strokeColor=none;fillColor=none;align=center;verticalAlign=middle;whiteSpace=wrap;rounded=0;fontSize=12;fontFamily=Helvetica;fontColor=default;" vertex="1" parent="1">
          <mxGeometry x="143" y="248.5" width="22" height="20" as="geometry" />
        </mxCell>
        <mxCell id="oiQ_zvyc4pcT-CEGpvRY-59" value="" style="edgeStyle=none;shape=connector;rounded=0;orthogonalLoop=1;jettySize=auto;html=1;labelBackgroundColor=default;strokeColor=default;align=center;verticalAlign=middle;fontFamily=Helvetica;fontSize=12;fontColor=default;endArrow=none;endFill=0;startSize=8;endSize=8;" edge="1" parent="1" source="g8IIa9dRJNMnUPB34h86-22" target="oiQ_zvyc4pcT-CEGpvRY-58">
          <mxGeometry relative="1" as="geometry">
            <mxPoint x="-19" y="259" as="sourcePoint" />
            <mxPoint x="62" y="259" as="targetPoint" />
          </mxGeometry>
        </mxCell>
        <mxCell id="oiQ_zvyc4pcT-CEGpvRY-58" value="1" style="text;html=1;strokeColor=none;fillColor=none;align=center;verticalAlign=middle;whiteSpace=wrap;rounded=0;fontSize=12;fontFamily=Helvetica;fontColor=default;" vertex="1" parent="1">
          <mxGeometry x="13" y="246" width="21" height="20" as="geometry" />
        </mxCell>
        <mxCell id="oiQ_zvyc4pcT-CEGpvRY-61" value="" style="edgeStyle=none;shape=connector;rounded=0;orthogonalLoop=1;jettySize=auto;html=1;entryX=1;entryY=0;entryDx=0;entryDy=0;labelBackgroundColor=default;strokeColor=default;align=center;verticalAlign=middle;fontFamily=Helvetica;fontSize=12;fontColor=default;endArrow=none;endFill=0;startSize=8;endSize=8;" edge="1" parent="1" source="g8IIa9dRJNMnUPB34h86-20" target="oiQ_zvyc4pcT-CEGpvRY-60">
          <mxGeometry relative="1" as="geometry">
            <mxPoint x="-57" y="-78" as="sourcePoint" />
            <mxPoint x="-59" y="-33" as="targetPoint" />
          </mxGeometry>
        </mxCell>
        <mxCell id="oiQ_zvyc4pcT-CEGpvRY-60" value="n" style="text;html=1;strokeColor=none;fillColor=none;align=center;verticalAlign=middle;whiteSpace=wrap;rounded=0;fontSize=12;fontFamily=Helvetica;fontColor=default;" vertex="1" parent="1">
          <mxGeometry x="-67.5" y="-61" width="11.5" height="8" as="geometry" />
        </mxCell>
        <mxCell id="oiQ_zvyc4pcT-CEGpvRY-64" value="" style="edgeStyle=none;shape=connector;rounded=0;orthogonalLoop=1;jettySize=auto;html=1;entryX=0;entryY=1;entryDx=0;entryDy=0;labelBackgroundColor=default;strokeColor=default;align=center;verticalAlign=middle;fontFamily=Helvetica;fontSize=12;fontColor=default;endArrow=none;endFill=0;startSize=8;endSize=8;" edge="1" parent="1" source="g8IIa9dRJNMnUPB34h86-21" target="oiQ_zvyc4pcT-CEGpvRY-63">
          <mxGeometry relative="1" as="geometry">
            <mxPoint x="-129" y="14" as="sourcePoint" />
            <mxPoint x="-81" y="-16" as="targetPoint" />
          </mxGeometry>
        </mxCell>
        <mxCell id="oiQ_zvyc4pcT-CEGpvRY-63" value="m" style="text;html=1;strokeColor=none;fillColor=none;align=center;verticalAlign=middle;whiteSpace=wrap;rounded=0;fontSize=12;fontFamily=Helvetica;fontColor=default;" vertex="1" parent="1">
          <mxGeometry x="-110" y="-17" width="18" height="21" as="geometry" />
        </mxCell>
        <mxCell id="oiQ_zvyc4pcT-CEGpvRY-71" value="" style="edgeStyle=none;shape=connector;rounded=0;orthogonalLoop=1;jettySize=auto;html=1;entryX=0.692;entryY=0.6;entryDx=0;entryDy=0;labelBackgroundColor=default;strokeColor=default;align=center;verticalAlign=middle;fontFamily=Helvetica;fontSize=12;fontColor=default;endArrow=none;endFill=0;startSize=8;endSize=8;entryPerimeter=0;" edge="1" parent="1" source="g8IIa9dRJNMnUPB34h86-3" target="oiQ_zvyc4pcT-CEGpvRY-70">
          <mxGeometry relative="1" as="geometry">
            <mxPoint x="205" y="-78" as="sourcePoint" />
            <mxPoint x="189" y="-40" as="targetPoint" />
            <Array as="points">
              <mxPoint x="197" y="-59" />
            </Array>
          </mxGeometry>
        </mxCell>
        <mxCell id="oiQ_zvyc4pcT-CEGpvRY-70" value="1" style="text;html=1;strokeColor=none;fillColor=none;align=center;verticalAlign=middle;whiteSpace=wrap;rounded=0;fontSize=12;fontFamily=Helvetica;fontColor=default;" vertex="1" parent="1">
          <mxGeometry x="188" y="-68" width="13" height="15" as="geometry" />
        </mxCell>
      </root>
    </mxGraphModel>
  </diagram>
</mxfile>
